<mxfile host="app.diagrams.net" modified="2023-07-27T19:42:55.725Z" agent="Mozilla/5.0 (Windows NT 10.0; Win64; x64) AppleWebKit/537.36 (KHTML, like Gecko) Chrome/114.0.0.0 Safari/537.36 OPR/100.0.0.0 (Edition std-1)" etag="KTTngCfXX0P3dcoAbpqv" version="21.6.5" type="github">
  <diagram id="C5RBs43oDa-KdzZeNtuy" name="Page-1">
    <mxGraphModel dx="839" dy="446" grid="1" gridSize="10" guides="1" tooltips="1" connect="1" arrows="1" fold="1" page="1" pageScale="1" pageWidth="827" pageHeight="1169" math="0" shadow="0">
      <root>
        <mxCell id="WIyWlLk6GJQsqaUBKTNV-0" />
        <mxCell id="WIyWlLk6GJQsqaUBKTNV-1" parent="WIyWlLk6GJQsqaUBKTNV-0" />
        <mxCell id="WIyWlLk6GJQsqaUBKTNV-2" value="" style="rounded=0;html=1;jettySize=auto;orthogonalLoop=1;fontSize=11;endArrow=block;endFill=0;endSize=8;strokeWidth=1;shadow=0;labelBackgroundColor=none;edgeStyle=orthogonalEdgeStyle;" parent="WIyWlLk6GJQsqaUBKTNV-1" source="WIyWlLk6GJQsqaUBKTNV-3" target="WIyWlLk6GJQsqaUBKTNV-6" edge="1">
          <mxGeometry relative="1" as="geometry" />
        </mxCell>
        <mxCell id="WIyWlLk6GJQsqaUBKTNV-3" value="Inicio" style="rounded=1;whiteSpace=wrap;html=1;fontSize=12;glass=0;strokeWidth=1;shadow=0;" parent="WIyWlLk6GJQsqaUBKTNV-1" vertex="1">
          <mxGeometry x="280" y="30" width="120" height="40" as="geometry" />
        </mxCell>
        <mxCell id="nABgr-9hpTSCNNGx4_WT-3" style="edgeStyle=orthogonalEdgeStyle;rounded=0;orthogonalLoop=1;jettySize=auto;html=1;exitX=0;exitY=0.5;exitDx=0;exitDy=0;entryX=0.5;entryY=0;entryDx=0;entryDy=0;" edge="1" parent="WIyWlLk6GJQsqaUBKTNV-1" source="WIyWlLk6GJQsqaUBKTNV-6" target="nABgr-9hpTSCNNGx4_WT-2">
          <mxGeometry relative="1" as="geometry" />
        </mxCell>
        <mxCell id="nABgr-9hpTSCNNGx4_WT-4" value="NO" style="edgeLabel;html=1;align=center;verticalAlign=middle;resizable=0;points=[];" vertex="1" connectable="0" parent="nABgr-9hpTSCNNGx4_WT-3">
          <mxGeometry x="-0.1226" relative="1" as="geometry">
            <mxPoint as="offset" />
          </mxGeometry>
        </mxCell>
        <mxCell id="nABgr-9hpTSCNNGx4_WT-17" style="edgeStyle=orthogonalEdgeStyle;rounded=0;orthogonalLoop=1;jettySize=auto;html=1;exitX=1;exitY=0.5;exitDx=0;exitDy=0;entryX=0.5;entryY=0;entryDx=0;entryDy=0;" edge="1" parent="WIyWlLk6GJQsqaUBKTNV-1" source="WIyWlLk6GJQsqaUBKTNV-6" target="nABgr-9hpTSCNNGx4_WT-16">
          <mxGeometry relative="1" as="geometry" />
        </mxCell>
        <mxCell id="nABgr-9hpTSCNNGx4_WT-18" value="SI" style="edgeLabel;html=1;align=center;verticalAlign=middle;resizable=0;points=[];" vertex="1" connectable="0" parent="nABgr-9hpTSCNNGx4_WT-17">
          <mxGeometry x="-0.0667" y="2" relative="1" as="geometry">
            <mxPoint as="offset" />
          </mxGeometry>
        </mxCell>
        <mxCell id="WIyWlLk6GJQsqaUBKTNV-6" value="¿Hay usuario&amp;nbsp;&lt;br&gt;logueqado?" style="rhombus;whiteSpace=wrap;html=1;shadow=0;fontFamily=Helvetica;fontSize=12;align=center;strokeWidth=1;spacing=6;spacingTop=-4;" parent="WIyWlLk6GJQsqaUBKTNV-1" vertex="1">
          <mxGeometry x="290" y="130" width="100" height="80" as="geometry" />
        </mxCell>
        <mxCell id="nABgr-9hpTSCNNGx4_WT-24" style="edgeStyle=orthogonalEdgeStyle;rounded=0;orthogonalLoop=1;jettySize=auto;html=1;exitX=0.25;exitY=1;exitDx=0;exitDy=0;entryX=0.5;entryY=0;entryDx=0;entryDy=0;" edge="1" parent="WIyWlLk6GJQsqaUBKTNV-1" source="nABgr-9hpTSCNNGx4_WT-2" target="nABgr-9hpTSCNNGx4_WT-10">
          <mxGeometry relative="1" as="geometry" />
        </mxCell>
        <mxCell id="nABgr-9hpTSCNNGx4_WT-2" value="Pantalla de inicio de sesion" style="swimlane;whiteSpace=wrap;html=1;" vertex="1" parent="WIyWlLk6GJQsqaUBKTNV-1">
          <mxGeometry x="70" y="190" width="190" height="150" as="geometry" />
        </mxCell>
        <mxCell id="nABgr-9hpTSCNNGx4_WT-5" value="Usuario" style="rounded=0;whiteSpace=wrap;html=1;" vertex="1" parent="nABgr-9hpTSCNNGx4_WT-2">
          <mxGeometry x="25" y="40" width="120" height="20" as="geometry" />
        </mxCell>
        <mxCell id="nABgr-9hpTSCNNGx4_WT-6" value="Contraseña" style="rounded=0;whiteSpace=wrap;html=1;" vertex="1" parent="nABgr-9hpTSCNNGx4_WT-2">
          <mxGeometry x="25" y="80" width="120" height="20" as="geometry" />
        </mxCell>
        <mxCell id="nABgr-9hpTSCNNGx4_WT-9" value="Iniciar sesion" style="shape=ext;double=1;rounded=1;whiteSpace=wrap;html=1;" vertex="1" parent="nABgr-9hpTSCNNGx4_WT-2">
          <mxGeometry x="25" y="120" width="115" height="20" as="geometry" />
        </mxCell>
        <mxCell id="nABgr-9hpTSCNNGx4_WT-19" style="edgeStyle=orthogonalEdgeStyle;rounded=0;orthogonalLoop=1;jettySize=auto;html=1;exitX=1;exitY=0.5;exitDx=0;exitDy=0;entryX=0;entryY=0.75;entryDx=0;entryDy=0;" edge="1" parent="WIyWlLk6GJQsqaUBKTNV-1" source="nABgr-9hpTSCNNGx4_WT-10" target="nABgr-9hpTSCNNGx4_WT-16">
          <mxGeometry relative="1" as="geometry" />
        </mxCell>
        <mxCell id="nABgr-9hpTSCNNGx4_WT-20" value="SI" style="edgeLabel;html=1;align=center;verticalAlign=middle;resizable=0;points=[];" vertex="1" connectable="0" parent="nABgr-9hpTSCNNGx4_WT-19">
          <mxGeometry x="0.25" y="2" relative="1" as="geometry">
            <mxPoint as="offset" />
          </mxGeometry>
        </mxCell>
        <mxCell id="nABgr-9hpTSCNNGx4_WT-22" style="edgeStyle=orthogonalEdgeStyle;rounded=0;orthogonalLoop=1;jettySize=auto;html=1;exitX=0;exitY=0.5;exitDx=0;exitDy=0;entryX=0.25;entryY=0;entryDx=0;entryDy=0;" edge="1" parent="WIyWlLk6GJQsqaUBKTNV-1" source="nABgr-9hpTSCNNGx4_WT-10" target="nABgr-9hpTSCNNGx4_WT-2">
          <mxGeometry relative="1" as="geometry" />
        </mxCell>
        <mxCell id="nABgr-9hpTSCNNGx4_WT-23" value="NO" style="edgeLabel;html=1;align=center;verticalAlign=middle;resizable=0;points=[];" vertex="1" connectable="0" parent="nABgr-9hpTSCNNGx4_WT-22">
          <mxGeometry x="-0.0582" y="1" relative="1" as="geometry">
            <mxPoint as="offset" />
          </mxGeometry>
        </mxCell>
        <mxCell id="nABgr-9hpTSCNNGx4_WT-10" value="¿Credenciales&lt;br&gt;correctas?" style="rhombus;whiteSpace=wrap;html=1;shadow=0;fontFamily=Helvetica;fontSize=12;align=center;strokeWidth=1;spacing=6;spacingTop=-4;" vertex="1" parent="WIyWlLk6GJQsqaUBKTNV-1">
          <mxGeometry x="60" y="370" width="100" height="80" as="geometry" />
        </mxCell>
        <mxCell id="nABgr-9hpTSCNNGx4_WT-16" value="Menu de inicio" style="swimlane;whiteSpace=wrap;html=1;" vertex="1" parent="WIyWlLk6GJQsqaUBKTNV-1">
          <mxGeometry x="320" y="260" width="200" height="200" as="geometry" />
        </mxCell>
        <mxCell id="nABgr-9hpTSCNNGx4_WT-25" value="Menu de navegación" style="swimlane;fontStyle=0;childLayout=stackLayout;horizontal=1;startSize=30;horizontalStack=0;resizeParent=1;resizeParentMax=0;resizeLast=0;collapsible=1;marginBottom=0;whiteSpace=wrap;html=1;" vertex="1" parent="nABgr-9hpTSCNNGx4_WT-16">
          <mxGeometry y="20" width="140" height="120" as="geometry" />
        </mxCell>
        <mxCell id="nABgr-9hpTSCNNGx4_WT-26" value="Entrenamientos" style="text;strokeColor=none;fillColor=none;align=left;verticalAlign=middle;spacingLeft=4;spacingRight=4;overflow=hidden;points=[[0,0.5],[1,0.5]];portConstraint=eastwest;rotatable=0;whiteSpace=wrap;html=1;" vertex="1" parent="nABgr-9hpTSCNNGx4_WT-25">
          <mxGeometry y="30" width="140" height="30" as="geometry" />
        </mxCell>
        <mxCell id="nABgr-9hpTSCNNGx4_WT-27" value="Alineacion" style="text;strokeColor=none;fillColor=none;align=left;verticalAlign=middle;spacingLeft=4;spacingRight=4;overflow=hidden;points=[[0,0.5],[1,0.5]];portConstraint=eastwest;rotatable=0;whiteSpace=wrap;html=1;" vertex="1" parent="nABgr-9hpTSCNNGx4_WT-25">
          <mxGeometry y="60" width="140" height="30" as="geometry" />
        </mxCell>
        <mxCell id="nABgr-9hpTSCNNGx4_WT-28" value="Eventos" style="text;strokeColor=none;fillColor=none;align=left;verticalAlign=middle;spacingLeft=4;spacingRight=4;overflow=hidden;points=[[0,0.5],[1,0.5]];portConstraint=eastwest;rotatable=0;whiteSpace=wrap;html=1;" vertex="1" parent="nABgr-9hpTSCNNGx4_WT-25">
          <mxGeometry y="90" width="140" height="30" as="geometry" />
        </mxCell>
      </root>
    </mxGraphModel>
  </diagram>
</mxfile>
